<?xml version="1.0" encoding="UTF-8" standalone="no" ?>
<!DOCTYPE svg PUBLIC "-//W3C//DTD SVG 1.1//EN" "http://www.w3.org/Graphics/SVG/1.1/DTD/svg11.dtd">
<svg xmlns="http://www.w3.org/2000/svg" xmlns:xlink="http://www.w3.org/1999/xlink" version="1.1" width="400" height="400" viewBox="0 0 400 400" xml:space="preserve">
<desc>Created with Fabric.js 3.6.2</desc>
<defs>
</defs>
<g transform="matrix(10 0 0 10 200 200)"  >
<path style="stroke: none; stroke-width: 1; stroke-dasharray: none; stroke-linecap: butt; stroke-dashoffset: 0; stroke-linejoin: miter; stroke-miterlimit: 4; fill: rgb(248,167,155); fill-rule: nonzero; opacity: 1;"  transform=" translate(-11.95, -12)" d="M 13 20 v -5 h -2 v 5 a 2 2 0 0 1 -2 2 H 6 a 2 2 0 0 1 -2 -2 v -7.59 l -0.3 0.3 a 1 1 0 1 1 -1.4 -1.42 l 9 -9 a 1 1 0 0 1 1.4 0 l 9 9 a 1 1 0 0 1 -1.4 1.42 l -0.3 -0.3 V 20 a 2 2 0 0 1 -2 2 h -3 a 2 2 0 0 1 -2 -2 z m 5 0 v -9.59 l -6 -6 l -6 6 V 20 h 3 v -5 c 0 -1.1 0.9 -2 2 -2 h 2 a 2 2 0 0 1 2 2 v 5 h 3 z" stroke-linecap="round" />
</g>
</svg>